<svg width="50" height="48" viewBox="0 0 50 48" fill="none" xmlns="http://www.w3.org/2000/svg">
<path d="M42.9129 19.663C43.6396 19.992 44.3512 20.3251 45.0232 20.7735C45.4098 21.0303 45.7062 20.8359 45.6707 20.3695C45.4726 17.8279 44.5042 15.2876 43.3036 13.0027C40.524 7.71812 35.122 3.64536 29.347 2.44879C26.4914 1.85837 23.6354 1.85051 20.7789 2.4252C17.5854 3.0679 14.2582 4.79889 11.7559 6.98242C11.1157 7.54044 10.4569 8.17899 9.77945 8.89804C6.81367 12.0426 5.0403 15.8313 4.45934 20.264C4.40289 20.6971 4.55268 20.885 4.90872 20.8276C4.94842 20.8212 4.98646 20.8071 5.02072 20.786C5.66542 20.4015 6.35928 20.035 7.06134 19.8268C7.26531 19.7657 7.38506 19.6454 7.42057 19.4659C7.80575 17.5016 8.17863 15.9039 9.15524 14.2021C10.2438 12.3087 11.678 10.4222 13.3594 9.02574C16.9899 6.01073 20.8963 4.42132 25.5909 4.55319C30.2212 4.68229 34.9581 6.8561 38.1009 10.3209C40.3068 12.7515 42.2614 16.0649 42.7149 19.3937C42.7229 19.4519 42.7452 19.5071 42.7798 19.5542C42.8145 19.6013 42.8603 19.6387 42.9129 19.663Z" stroke="#1D1F26" stroke-width="2"/>
<path d="M39.8125 25.1502L39.762 23.3526C39.7615 23.3361 39.7577 23.3199 39.7507 23.3049C39.7438 23.29 39.7339 23.2766 39.7216 23.2657C39.7093 23.2548 39.6949 23.2465 39.6793 23.2414C39.6637 23.2363 39.6472 23.2344 39.6309 23.236C38.3114 23.3692 36.9838 23.4025 35.6944 23.0305C34.3258 22.6349 32.5242 21.5175 31.3154 20.9372C28.3824 19.526 25.3142 19.1479 22.1107 19.8031C21.2339 19.9827 20.5873 20.1733 20.1712 20.375C17.1362 21.8451 14.104 23.8412 10.5581 23.1471C10.5383 23.143 10.5178 23.1434 10.4981 23.1484C10.4785 23.1533 10.4601 23.1626 10.4444 23.1756C10.4287 23.1886 10.4161 23.205 10.4074 23.2236C10.3987 23.2422 10.3942 23.2626 10.3942 23.2832L10.3901 25.0863C10.39 25.115 10.4 25.1428 10.4182 25.1649C10.4364 25.1869 10.4618 25.2019 10.4898 25.2071C12.3993 25.544 14.2442 25.3427 16.0244 24.6033C18.2276 23.6885 20.3911 22.2615 22.8961 21.7868C25.555 21.2815 28.0701 21.6313 30.4412 22.8362C32.2998 23.7792 33.5204 24.3636 34.1032 24.5894C35.9216 25.2927 37.8015 25.5079 39.7429 25.2349C39.7911 25.2284 39.8144 25.2002 39.8125 25.1502Z" stroke="#1D1F26" stroke-width="2"/>
<path d="M9.4476 38.6901C9.48949 38.3264 9.50998 37.99 9.50907 37.6809C9.48904 31.8785 9.48266 26.072 9.48995 20.2613C9.48995 20.2122 9.46581 20.1882 9.41755 20.1891C7.99613 20.2289 6.70628 20.6046 5.54802 21.3163C-2.15008 26.0484 0.499729 37.6559 9.18126 38.8983C9.21237 38.9028 9.24405 38.9009 9.27442 38.8928C9.30478 38.8847 9.33323 38.8706 9.35806 38.8511C9.3829 38.8317 9.40361 38.8075 9.41899 38.7798C9.43438 38.7521 9.4441 38.7216 9.4476 38.6901Z" stroke="#1D1F26" stroke-width="2"/>
<path d="M40.8723 38.8871C46.3754 38.1403 49.9062 33.014 48.7958 27.492C48.213 24.5982 46.5576 22.4522 43.8294 21.0539C42.9116 20.5837 41.9172 20.3149 40.8464 20.2474C40.8163 20.2457 40.7862 20.2502 40.7579 20.2606C40.7296 20.2711 40.7037 20.2873 40.6819 20.3082C40.66 20.3292 40.6426 20.3544 40.6307 20.3823C40.6188 20.4103 40.6127 20.4404 40.6128 20.4708L40.6142 38.6567C40.6141 38.6898 40.6209 38.7225 40.6343 38.7526C40.6477 38.7828 40.6673 38.8097 40.6917 38.8315C40.7162 38.8533 40.745 38.8696 40.7761 38.8792C40.8072 38.8888 40.8401 38.8915 40.8723 38.8871Z" stroke="#1D1F26" stroke-width="2"/>
<path d="M38.6148 29.2258C38.9672 29.161 39.3251 29.105 39.6884 29.0578C39.7357 29.0522 39.7594 29.0254 39.7594 28.9773L39.7772 27.0325C39.7772 26.9816 39.7526 26.9557 39.7034 26.9548C39.4949 26.952 39.2527 26.9927 38.9768 27.0769C36.7818 27.746 34.7589 27.0297 32.7866 26.0317C31.0547 25.1558 29.1069 24.2479 27.304 23.8884C24.0409 23.236 21.1671 24.1202 18.2892 25.6416C16.967 26.3398 15.832 26.8993 14.6628 27.1741C13.8423 27.3675 12.9017 27.3883 11.8409 27.2366C11.4106 27.1755 10.9203 26.9756 10.4408 26.9034C10.4294 26.9016 10.4177 26.9024 10.4066 26.9057C10.3954 26.909 10.3851 26.9147 10.3763 26.9225C10.3675 26.9302 10.3604 26.9399 10.3555 26.9507C10.3506 26.9616 10.348 26.9734 10.3479 26.9853L10.3452 29.0175C10.3452 29.062 10.3671 29.0879 10.4108 29.0953C12.1209 29.3785 13.8801 29.5589 15.5506 29.012C16.595 28.6705 17.6654 28.2235 18.7618 27.6711C20.1185 26.9881 20.9039 26.6059 21.1179 26.5245C23.3479 25.6731 25.6148 25.5671 27.9186 26.2066C28.4996 26.3676 29.3501 26.6952 30.4701 27.1894C31.5573 27.6687 32.4693 28.0903 33.2059 28.454C34.9424 29.3118 36.7454 29.5691 38.6148 29.2258Z" stroke="#1D1F26" stroke-width="2"/>
<path d="M33.3355 32.7919C35.4581 33.7191 37.5247 33.5762 39.7169 32.9251C39.767 32.9103 39.792 32.8761 39.792 32.8224L39.8084 31.1275C39.8088 31.0937 39.8019 31.0603 39.7884 31.0295C39.7748 30.9986 39.7549 30.9712 39.73 30.949C39.705 30.9268 39.6757 30.9104 39.6439 30.901C39.6122 30.8916 39.5788 30.8893 39.5462 30.8943C39.2115 30.9429 38.9302 30.9762 38.6133 31.0845C36.9469 31.6582 35.3151 31.5555 33.718 30.7763C30.1148 29.0203 26.4761 27.0881 22.3416 28.2735C20.5195 28.7955 18.752 29.5284 17.0843 30.4362C14.9508 31.5967 12.7394 31.7045 10.4502 30.7597C10.3965 30.7374 10.3696 30.7555 10.3696 30.8138L10.356 32.8196C10.3555 32.8471 10.364 32.8739 10.38 32.896C10.3961 32.9181 10.4188 32.9342 10.4448 32.9418C13.0281 33.7302 15.4908 33.5248 17.8328 32.3255C18.9036 31.7767 19.8843 31.3181 20.7749 30.9498C23.9082 29.6524 27.0033 29.7583 30.0601 31.2677C31.141 31.8017 32.2328 32.3097 33.3355 32.7919Z" stroke="#1D1F26" stroke-width="2"/>
<path d="M23.0775 34.4715C25.4004 34.0513 27.6627 34.3928 29.8645 35.4959C30.7287 35.9281 31.5969 36.3505 32.4693 36.7633C32.8526 36.9447 33.2173 37.0932 33.5633 37.2089C35.522 37.8599 37.8221 37.5878 39.759 36.9854C39.8027 36.9724 39.8232 36.9428 39.8204 36.8965C39.7931 36.4125 39.7817 35.9281 39.7863 35.4432C39.789 35.1239 39.7084 34.8088 39.3137 34.9379C37.9738 35.3724 36.6297 35.743 35.2707 35.5737C33.7518 35.3863 32.2603 34.4659 30.9149 33.7982C29.8113 33.2522 28.9753 32.8899 28.4071 32.7113C26.2818 32.045 24.0623 31.8882 21.9356 32.6572C21.0451 32.9792 20.2037 33.2569 19.324 33.6969C18.1043 34.3063 16.5622 34.9948 15.449 35.2891C13.7608 35.7375 12.0753 35.4335 10.4677 34.7963C10.4607 34.7934 10.4531 34.7923 10.4456 34.7931C10.4381 34.7939 10.4309 34.7966 10.4246 34.801C10.4183 34.8054 10.413 34.8113 10.4094 34.8182C10.4057 34.8251 10.4037 34.8328 10.4035 34.8407L10.3721 36.8715C10.3721 36.8908 10.3782 36.9096 10.3896 36.9251C10.4009 36.9406 10.4168 36.952 10.4349 36.9576C11.6096 37.3171 12.8908 37.5892 14.0845 37.5531C16.2262 37.4879 18.0142 36.5703 19.9004 35.6486C21.0341 35.0961 22.0217 34.663 23.0775 34.4715Z" stroke="#1D1F26" stroke-width="2"/>
<path d="M39.2023 39.0662C39.0247 39.0023 38.8685 38.9764 38.7338 38.9885C37.8523 39.0634 36.97 39.0977 36.0867 39.0912C36.0421 39.0912 36.0006 39.1032 35.9624 39.1273C35.5076 39.4146 35.1142 39.8866 34.7932 40.1462C30.7598 43.4194 25.7907 44.1939 20.8407 42.9169C18.3721 42.2811 16.1977 41.0572 14.3173 39.2453C14.2791 39.2082 14.2335 39.1888 14.1807 39.187L10.9668 39.0579C10.9471 39.0572 10.9277 39.0638 10.9122 39.0766C10.8967 39.0893 10.886 39.1072 10.8821 39.1273C10.8384 39.348 11.0051 39.4854 11.1321 39.6367C14.8022 44.0551 20.4392 46.24 26.0693 45.9791C31.3334 45.7334 36.2192 43.3111 39.4782 39.1148C39.4851 39.106 39.4891 39.0951 39.4895 39.0838C39.4899 39.0725 39.4868 39.0614 39.4805 39.0521C39.4742 39.0428 39.4652 39.0357 39.4547 39.032C39.4442 39.0283 39.4328 39.0281 39.4222 39.0315L39.3061 39.0676C39.2706 39.0787 39.236 39.0782 39.2023 39.0662Z" stroke="#1D1F26" stroke-width="2"/>
<path d="M45.0232 20.7735C44.3512 20.3251 43.6396 19.992 42.9129 19.663C42.8603 19.6387 42.8145 19.6013 42.7798 19.5542C42.7452 19.5071 42.7229 19.4519 42.7149 19.3937C42.2614 16.0649 40.3068 12.7515 38.1009 10.3209C34.9581 6.8561 30.2212 4.68229 25.5909 4.55319C20.8963 4.42132 16.9899 6.01073 13.3594 9.02574C11.678 10.4222 10.2438 12.3087 9.15524 14.2021C8.17863 15.9039 7.80575 17.5016 7.42057 19.4659C7.38506 19.6454 7.26531 19.7657 7.06134 19.8268C6.35928 20.035 5.66542 20.4014 5.02072 20.786C4.98646 20.8071 4.94842 20.8212 4.90872 20.8276C4.55268 20.885 4.40289 20.6971 4.45934 20.264C5.0403 15.8313 6.81367 12.0426 9.77945 8.89804C10.4569 8.17899 11.1157 7.54044 11.7559 6.98242C14.2582 4.79889 17.5854 3.0679 20.7789 2.4252C23.6354 1.85051 26.4914 1.85837 29.347 2.44879C35.122 3.64536 40.524 7.71812 43.3036 13.0027C44.5042 15.2876 45.4726 17.8279 45.6707 20.3695C45.7062 20.8359 45.4098 21.0303 45.0232 20.7735Z" fill="white"/>
<path d="M39.762 23.3526L39.8125 25.1503C39.8144 25.2002 39.7911 25.2284 39.7429 25.2349C37.8015 25.5079 35.9216 25.2928 34.1032 24.5894C33.5204 24.3636 32.2998 23.7792 30.4412 22.8362C28.0701 21.6313 25.555 21.2815 22.8961 21.7868C20.3911 22.2616 18.2276 23.6886 16.0244 24.6033C14.2442 25.3427 12.3993 25.544 10.4898 25.2072C10.4618 25.202 10.4364 25.187 10.4182 25.1649C10.4 25.1429 10.39 25.1151 10.3901 25.0864L10.3942 23.2832C10.3942 23.2626 10.3987 23.2423 10.4074 23.2237C10.4161 23.2051 10.4287 23.1887 10.4444 23.1757C10.4601 23.1627 10.4785 23.1533 10.4981 23.1484C10.5178 23.1435 10.5383 23.1431 10.5581 23.1472C14.104 23.8412 17.1362 21.8451 20.1712 20.3751C20.5873 20.1734 21.2339 19.9827 22.1107 19.8032C25.3142 19.148 28.3824 19.526 31.3154 20.9373C32.5242 21.5175 34.3258 22.635 35.6944 23.0306C36.9838 23.4026 38.3114 23.3693 39.6309 23.236C39.6472 23.2345 39.6637 23.2363 39.6793 23.2415C39.6949 23.2466 39.7093 23.2549 39.7216 23.2658C39.7339 23.2767 39.7438 23.29 39.7507 23.305C39.7577 23.3199 39.7615 23.3361 39.762 23.3526Z" fill="white"/>
<path d="M9.44809 38.6901C9.44459 38.7216 9.43486 38.7521 9.41948 38.7798C9.4041 38.8075 9.38338 38.8317 9.35855 38.8511C9.33372 38.8706 9.30527 38.8847 9.2749 38.8928C9.24454 38.9009 9.21286 38.9028 9.18175 38.8983C0.500217 37.6559 -2.14959 26.0484 5.54851 21.3163C6.70677 20.6046 7.99662 20.2289 9.41804 20.1891C9.4663 20.1882 9.49044 20.2122 9.49044 20.2613C9.48315 26.072 9.48952 31.8785 9.50956 37.6809C9.51047 37.99 9.48998 38.3264 9.44809 38.6901Z" fill="white"/>
<path d="M40.8723 38.8871C40.8401 38.8915 40.8072 38.8888 40.7761 38.8792C40.745 38.8696 40.7162 38.8533 40.6917 38.8315C40.6673 38.8097 40.6477 38.7828 40.6343 38.7526C40.6209 38.7225 40.6141 38.6898 40.6142 38.6567L40.6128 20.4708C40.6127 20.4404 40.6188 20.4103 40.6307 20.3823C40.6426 20.3544 40.66 20.3292 40.6819 20.3082C40.7037 20.2873 40.7296 20.2711 40.7579 20.2606C40.7862 20.2502 40.8163 20.2457 40.8464 20.2474C41.9172 20.3149 42.9116 20.5837 43.8294 21.0539C46.5576 22.4522 48.213 24.5982 48.7958 27.492C49.9062 33.014 46.3754 38.1403 40.8723 38.8871Z" fill="white"/>
<path d="M38.6148 29.2258C36.7454 29.5691 34.9424 29.3118 33.2059 28.454C32.4693 28.0903 31.5573 27.6687 30.4701 27.1894C29.3501 26.6952 28.4996 26.3676 27.9186 26.2066C25.6148 25.5671 23.3479 25.6731 21.1179 26.5245C20.9039 26.6059 20.1185 26.9881 18.7618 27.6711C17.6654 28.2235 16.595 28.6705 15.5506 29.012C13.8801 29.5589 12.1209 29.3785 10.4108 29.0953C10.3671 29.0879 10.3452 29.062 10.3452 29.0175L10.3479 26.9853C10.348 26.9734 10.3506 26.9616 10.3555 26.9507C10.3604 26.9399 10.3675 26.9302 10.3763 26.9225C10.3851 26.9147 10.3954 26.909 10.4066 26.9057C10.4177 26.9024 10.4294 26.9016 10.4408 26.9034C10.9203 26.9756 11.4106 27.1755 11.8409 27.2366C12.9017 27.3883 13.8423 27.3675 14.6628 27.1741C15.832 26.8993 16.967 26.3398 18.2892 25.6416C21.1671 24.1202 24.0409 23.236 27.304 23.8884C29.1069 24.2479 31.0547 25.1558 32.7866 26.0317C34.7589 27.0297 36.7818 27.746 38.9768 27.0769C39.2527 26.9927 39.4949 26.952 39.7034 26.9548C39.7526 26.9557 39.7772 26.9816 39.7772 27.0325L39.7594 28.9773C39.7594 29.0254 39.7357 29.0522 39.6884 29.0578C39.3251 29.105 38.9672 29.161 38.6148 29.2258Z" fill="white"/>
<path d="M33.3355 32.7919C32.2328 32.3097 31.141 31.8017 30.0601 31.2677C27.0033 29.7583 23.9082 29.6524 20.7749 30.9498C19.8843 31.3181 18.9036 31.7767 17.8328 32.3255C15.4908 33.5248 13.0281 33.7302 10.4448 32.9418C10.4188 32.9342 10.3961 32.9181 10.38 32.896C10.364 32.8739 10.3555 32.8471 10.356 32.8196L10.3696 30.8138C10.3696 30.7555 10.3965 30.7374 10.4502 30.7597C12.7394 31.7045 14.9508 31.5967 17.0843 30.4362C18.752 29.5284 20.5195 28.7955 22.3416 28.2735C26.4761 27.0881 30.1148 29.0203 33.718 30.7763C35.3151 31.5555 36.9469 31.6582 38.6133 31.0845C38.9302 30.9762 39.2115 30.9429 39.5462 30.8943C39.5788 30.8893 39.6122 30.8916 39.6439 30.901C39.6757 30.9104 39.705 30.9268 39.73 30.949C39.7549 30.9712 39.7748 30.9986 39.7884 31.0295C39.8019 31.0603 39.8088 31.0937 39.8084 31.1275L39.792 32.8224C39.792 32.8761 39.767 32.9103 39.7169 32.9251C37.5247 33.5762 35.4581 33.7191 33.3355 32.7919Z" fill="white"/>
<path d="M23.0775 34.4715C22.0217 34.6631 21.0341 35.0962 19.9004 35.6487C18.0142 36.5704 16.2262 37.4879 14.0845 37.5532C12.8908 37.5893 11.6096 37.3172 10.4349 36.9577C10.4168 36.952 10.4009 36.9406 10.3896 36.9252C10.3782 36.9097 10.3721 36.8909 10.3721 36.8716L10.4035 34.8408C10.4037 34.8329 10.4057 34.8252 10.4094 34.8183C10.413 34.8113 10.4183 34.8054 10.4246 34.8011C10.4309 34.7967 10.4381 34.794 10.4456 34.7932C10.4531 34.7923 10.4607 34.7934 10.4677 34.7964C12.0753 35.4335 13.7608 35.7375 15.449 35.2891C16.5622 34.9949 18.1043 34.3063 19.324 33.697C20.2037 33.2569 21.0451 32.9793 21.9356 32.6573C24.0623 31.8882 26.2818 32.0451 28.4071 32.7114C28.9753 32.89 29.8113 33.2523 30.9149 33.7983C32.2603 34.466 33.7518 35.3863 35.2707 35.5737C36.6297 35.7431 37.9738 35.3724 39.3137 34.9379C39.7084 34.8089 39.789 35.124 39.7863 35.4432C39.7817 35.9281 39.7931 36.4126 39.8204 36.8966C39.8232 36.9429 39.8027 36.9725 39.759 36.9854C37.8221 37.5879 35.522 37.86 33.5633 37.2089C33.2173 37.0933 32.8526 36.9447 32.4693 36.7633C31.5969 36.3506 30.7287 35.9281 29.8645 35.496C27.6627 34.3929 25.4004 34.0514 23.0775 34.4715Z" fill="white"/>
<path d="M39.3061 39.0676L39.4222 39.0315C39.4328 39.0281 39.4442 39.0283 39.4547 39.032C39.4652 39.0357 39.4742 39.0428 39.4805 39.0521C39.4868 39.0614 39.4899 39.0725 39.4895 39.0838C39.4891 39.0951 39.4851 39.106 39.4782 39.1148C36.2192 43.3111 31.3334 45.7334 26.0693 45.9791C20.4392 46.24 14.8022 44.0551 11.1321 39.6367C11.0051 39.4854 10.8384 39.348 10.8821 39.1273C10.886 39.1072 10.8967 39.0893 10.9122 39.0766C10.9277 39.0638 10.9471 39.0572 10.9668 39.0579L14.1807 39.187C14.2335 39.1888 14.2791 39.2082 14.3173 39.2453C16.1977 41.0572 18.3721 42.2811 20.8407 42.9169C25.7907 44.1939 30.7598 43.4194 34.7932 40.1462C35.1142 39.8866 35.5076 39.4146 35.9624 39.1273C36.0006 39.1032 36.0421 39.0912 36.0867 39.0912C36.97 39.0977 37.8523 39.0634 38.7338 38.9885C38.8685 38.9764 39.0247 39.0023 39.2023 39.0662C39.236 39.0782 39.2706 39.0787 39.3061 39.0676Z" fill="white"/>
</svg>
